<svg width="826" height="161" viewBox="0 0 826 161" fill="none" xmlns="http://www.w3.org/2000/svg">
<path d="M129.125 0L78.8919 28.8496V118.891L51.1759 134.957L23.2905 118.878V86.7314L51.1759 70.808L69.106 81.2064V55.1974L51.0196 44.9293L0.799805 74.1048V131.817L51.189 160.836L101.409 131.817V41.789L129.294 25.7093L157.166 41.789V73.792L129.294 90.0151L111.208 79.5255V105.404L129.125 115.737L179.84 86.8877V28.8496L129.125 0Z" fill="white"/>
<path fill-rule="evenodd" clip-rule="evenodd" d="M423.837 125.002H446.353V1.57666H423.837V125.002ZM279.08 37.2673C289.752 37.2673 298.6 41.5544 305.597 50.1155C312.608 58.6765 316.1 69.2965 316.1 81.9752C316.1 94.6539 312.595 105.274 305.597 113.835C298.587 122.396 289.752 126.683 279.08 126.683C271.522 126.683 264.955 124.351 259.404 119.673C253.957 114.89 249.957 108.44 247.39 100.322V158.36H224.873V38.9353H247.39V63.6151C249.944 55.4971 253.957 49.0991 259.404 44.4342C264.968 39.6519 271.522 37.2673 279.08 37.2673ZM270.897 106.16C277.008 106.16 282.181 103.88 286.403 99.3188C290.625 94.6539 292.736 88.8683 292.736 81.9752C292.736 75.082 290.625 69.518 286.403 64.9573C282.181 60.2923 277.008 57.9468 270.897 57.9468C264.108 57.9468 258.505 60.2272 254.048 64.7879C249.605 69.3486 247.377 75.069 247.377 81.9622C247.377 88.8553 249.605 94.6409 254.048 99.3058C258.492 103.867 264.108 106.147 270.897 106.147V106.16ZM322.081 81.9752C322.081 94.6539 326.472 105.274 335.255 113.835C344.037 122.396 354.996 126.683 368.118 126.683C381.24 126.683 392.198 122.396 400.981 113.835C409.764 105.274 414.155 94.6539 414.155 81.9752C414.155 69.2965 409.764 58.6765 400.981 50.1155C392.198 41.5544 381.24 37.2673 368.118 37.2673C354.996 37.2673 344.037 41.5544 335.255 50.1155C326.472 58.6765 322.081 69.2965 322.081 81.9752ZM351.934 99.3188C347.595 94.6539 345.432 88.8683 345.432 81.9752C345.432 75.082 347.595 69.518 351.934 64.9573C356.273 60.2923 361.668 57.9468 368.118 57.9468C374.568 57.9468 379.963 60.2272 384.302 64.7879C388.641 69.3486 390.804 75.069 390.804 81.9622C390.804 88.8553 388.641 94.6409 384.302 99.3058C379.963 103.867 374.568 106.147 368.118 106.147C361.668 106.147 356.273 103.867 351.934 99.3058V99.3188ZM654.373 113.835C645.591 105.274 641.199 94.6539 641.199 81.9752C641.199 69.2965 645.591 58.6765 654.373 50.1155C663.156 41.5544 674.114 37.2673 687.236 37.2673C700.358 37.2673 711.317 41.5544 720.099 50.1155C728.882 58.6765 733.273 69.2965 733.273 81.9752C733.273 94.6539 728.882 105.274 720.099 113.835C711.317 122.396 700.358 126.683 687.236 126.683C674.114 126.683 663.169 122.396 654.373 113.835ZM664.537 81.9752C664.537 88.8683 666.7 94.6539 671.039 99.3188C675.378 103.88 680.773 106.16 687.223 106.16C693.673 106.16 699.068 103.88 703.407 99.3188C707.746 94.6539 709.909 88.8683 709.909 81.9752C709.909 75.082 707.746 69.3486 703.407 64.8009C699.068 60.2402 693.673 57.9599 687.223 57.9599C680.773 57.9599 675.378 60.2923 671.039 64.9703C666.7 69.531 664.537 75.1993 664.537 81.9882V81.9752ZM793.201 37.2673C802.765 37.2673 810.44 40.6032 816.213 47.2748C822.102 53.9465 825.047 62.4554 825.047 72.7886V124.989H802.531V76.789C802.531 71.225 800.758 66.6643 797.188 63.1069C793.631 59.5496 789.187 57.7644 783.845 57.7644C777.838 57.7644 772.951 59.5496 769.172 63.1069C765.393 66.6643 763.504 71.225 763.504 76.789V124.989H740.987V38.9353H763.504V60.9569C765.732 53.6207 769.459 47.8351 774.684 43.6132C780.027 39.3913 786.19 37.2804 793.201 37.2804V37.2673ZM500.443 102.055L523.455 39.0134H546.311L498.945 158.438H476.089L488.103 128.077L452.908 39.0134H477.262L500.443 102.055ZM610.343 38.9353V60.5008C605.652 46.4278 594.068 38.9353 578.653 38.9353C555.38 38.9353 541.62 59.2629 541.62 80.633C541.62 102.003 555.276 123.999 578.653 123.999C594.068 123.999 605.652 112.884 610.343 98.8107V115.32C610.343 122.331 608.063 128.103 603.502 132.664C598.941 137.225 593.39 139.505 586.823 139.505C577.923 139.505 571.316 135.062 566.977 126.162L546.793 136.834C550.572 143.844 555.966 149.447 562.977 153.682C569.987 157.904 577.936 160.015 586.823 160.015C599.945 160.015 610.903 155.741 619.686 147.167C628.468 138.606 632.86 127.986 632.86 115.307V38.9353H610.343ZM603.841 96.9864C599.501 101.326 594.055 103.489 587.5 103.489C580.946 103.489 575.825 101.326 571.486 96.9864C567.147 92.543 564.984 87.0962 564.984 80.6461C564.984 74.1959 567.147 68.8013 571.486 64.4621C575.825 60.1229 581.154 57.9599 587.5 57.9599C593.846 57.9599 599.515 60.1229 603.841 64.4621C608.18 68.684 610.343 74.0787 610.343 80.6461C610.343 87.2135 608.18 92.6602 603.841 96.9864Z" fill="white"/>
</svg>
